<svg id="Layer_1" data-name="Layer 1" xmlns="http://www.w3.org/2000/svg" viewBox="0 0 1140.93 406.14"><defs><style>.cls-1{fill:#ddd;}.cls-2{fill:#e6e7e8;}.cls-3{fill:#f15a66;}.cls-4{fill:#c14c5a;}.cls-5{fill:#9e4151;}.cls-6{fill:#72313f;}.cls-7{fill:#fff;}</style></defs><title>engineeringindexlogo</title><polygon class="cls-1" points="197.06 147.77 246.32 197.04 197.06 246.3 197.06 147.77"/><polygon class="cls-1" points="147.8 98.53 98.54 49.27 147.79 0 147.8 98.53"/><polygon class="cls-1" points="0.01 147.79 49.27 197.06 0 246.32 0.01 147.79"/><polygon class="cls-1" points="394.11 344.85 344.85 295.59 394.11 246.32 394.11 344.85"/><polygon class="cls-1" points="186.87 140.14 256.52 209.81 256.53 140.14 186.87 140.14"/><polygon class="cls-1" points="197.06 150.34 246.32 199.61 197.06 248.87 197.06 150.34"/><polygon class="cls-1" points="197.06 150.34 197.06 248.87 147.79 199.61 197.06 150.34"/><polygon class="cls-1" points="197.06 248.88 147.8 298.14 98.53 248.88 197.06 248.88"/><polygon class="cls-1" points="197.06 248.88 98.53 248.88 147.8 199.62 197.06 248.88"/><polygon class="cls-1" points="98.53 347.4 49.27 298.14 98.53 248.87 98.53 347.4"/><polygon class="cls-1" points="98.54 347.41 147.8 298.15 197.07 347.41 98.54 347.41"/><polygon class="cls-1" points="98.53 347.4 98.53 248.87 147.8 298.14 98.53 347.4"/><polygon class="cls-1" points="0 248.88 49.27 199.61 98.53 248.88 0 248.88"/><polygon class="cls-1" points="147.8 101.1 98.54 51.84 147.79 2.57 147.8 101.1"/><polygon class="cls-1" points="49.27 101.1 98.53 51.84 147.8 101.11 49.27 101.1"/><polygon class="cls-1" points="49.27 101.1 147.8 101.11 98.54 150.37 49.27 101.1"/><polygon class="cls-1" points="49.27 101.1 98.53 150.36 49.27 199.63 49.27 101.1"/><polygon class="cls-1" points="49.27 101.1 49.27 199.63 0.01 150.36 49.27 101.1"/><polygon class="cls-1" points="49.28 2.57 147.79 2.57 98.54 51.84 49.28 2.57"/><polygon class="cls-1" points="0.01 150.36 49.27 199.63 0 248.9 0.01 150.36"/><polygon class="cls-1" points="0.01 248.89 98.53 248.88 49.27 298.14 0.01 248.89"/><polyline class="cls-1" points="197.05 347.39 147.79 396.67 98.53 347.4 197.05 347.39"/><polygon class="cls-1" points="394.11 347.42 344.85 298.16 394.11 248.9 394.11 347.42"/><polygon class="cls-1" points="295.59 248.89 394.11 248.9 344.85 298.15 295.59 248.89"/><polygon class="cls-1" points="246.32 298.15 295.58 248.89 344.85 298.15 246.32 298.15"/><polygon class="cls-1" points="246.32 298.15 344.85 298.15 295.58 347.41 246.32 298.15"/><polyline class="cls-1" points="246.33 396.67 197.06 347.4 246.33 298.14 246.33 396.67"/><polyline class="cls-1" points="246.33 396.67 246.33 298.14 295.59 347.41 246.33 396.67"/><polyline class="cls-1" points="246.32 396.67 147.79 396.67 197.05 347.4 246.32 396.67"/><polygon class="cls-2" points="202.07 157.25 251.33 206.51 202.07 255.78 202.07 157.25"/><polygon class="cls-2" points="152.81 108 103.55 58.74 152.81 9.47 152.81 108"/><polygon class="cls-2" points="5.02 157.26 54.28 206.53 5.01 255.8 5.02 157.26"/><polygon class="cls-2" points="399.12 354.33 349.86 305.06 399.12 255.8 399.12 354.33"/><polygon class="cls-3" points="191.88 149.61 261.53 219.28 261.54 149.62 191.88 149.61"/><polygon class="cls-4" points="202.07 159.82 251.33 209.08 202.07 258.35 202.07 159.82"/><polygon class="cls-5" points="202.07 159.82 202.07 258.35 152.81 209.09 202.07 159.82"/><polygon class="cls-4" points="202.07 258.35 152.81 307.62 103.55 258.36 202.07 258.35"/><polygon class="cls-6" points="202.07 258.35 103.55 258.36 152.81 209.09 202.07 258.35"/><polygon class="cls-5" points="103.55 356.87 54.28 307.62 103.55 258.35 103.55 356.87"/><polygon class="cls-4" points="103.55 356.89 152.81 307.62 202.08 356.89 103.55 356.89"/><polygon class="cls-3" points="103.55 356.87 103.55 258.35 152.81 307.61 103.55 356.87"/><polygon class="cls-4" points="5.01 258.35 54.28 209.09 103.54 258.35 5.01 258.35"/><polygon class="cls-5" points="152.81 110.58 103.55 61.31 152.81 12.04 152.81 110.58"/><polygon class="cls-4" points="54.28 110.58 103.55 61.31 152.81 110.58 54.28 110.58"/><polygon class="cls-3" points="54.28 110.58 152.81 110.58 103.55 159.84 54.28 110.58"/><polygon class="cls-4" points="54.28 110.57 103.54 159.83 54.28 209.1 54.28 110.57"/><polygon class="cls-5" points="54.28 110.57 54.28 209.1 5.02 159.84 54.28 110.57"/><polygon class="cls-6" points="54.29 12.04 152.81 12.04 103.55 61.31 54.29 12.04"/><polygon class="cls-6" points="5.02 159.84 54.28 209.1 5.01 258.37 5.02 159.84"/><polygon class="cls-3" points="5.02 258.36 103.55 258.36 54.28 307.62 5.02 258.36"/><polyline class="cls-5" points="202.06 356.87 152.8 406.14 103.54 356.88 202.06 356.87"/><polygon class="cls-6" points="399.12 356.9 349.86 307.63 399.12 258.37 399.12 356.9"/><polygon class="cls-5" points="300.6 258.36 399.12 258.37 349.87 307.63 300.6 258.36"/><polygon class="cls-4" points="251.33 307.63 300.59 258.36 349.87 307.62 251.33 307.63"/><polygon class="cls-3" points="251.33 307.63 349.87 307.62 300.6 356.89 251.33 307.63"/><polyline class="cls-5" points="251.34 406.14 202.07 356.87 251.34 307.62 251.34 406.14"/><polyline class="cls-4" points="251.34 406.14 251.34 307.62 300.6 356.88 251.34 406.14"/><polyline class="cls-6" points="251.33 406.14 152.8 406.14 202.06 356.88 251.33 406.14"/><path class="cls-7" d="M444.45,40.11h58.4V58.55H464V98.71h33.81v18.44H464V157.3h38.81v19.6h-58.4Z" transform="translate(2 -5)"/><path class="cls-7" d="M514.38,79.49H534v9.41h.38a27.85,27.85,0,0,1,7.4-7.59q4.32-3,11-3a22.47,22.47,0,0,1,7.3,1.25,16.94,16.94,0,0,1,6.53,4.13,20.83,20.83,0,0,1,4.61,7.4,31,31,0,0,1,1.73,11V176.9h-19.6V109.46q0-5.38-2.5-8.45a8.64,8.64,0,0,0-7.11-3.07q-5.57,0-7.68,3.46t-2.11,10V176.9h-19.6Z" transform="translate(2 -5)"/><path class="cls-7" d="M608.71,188.23a11,11,0,0,0,2.79,6.53q2.59,3.07,7.59,3.07,4.8,0,6.92-3a12.82,12.82,0,0,0,2.11-7.59V168.06h-.38a23.72,23.72,0,0,1-7.78,7.4A20.66,20.66,0,0,1,609.47,178q-12.1,0-17.1-9.22a26,26,0,0,1-2.5-8.07,85,85,0,0,1-.77-12.87V110.81a150.25,150.25,0,0,1,.58-15.56,19.35,19.35,0,0,1,2.5-8.07,21,21,0,0,1,6.44-6.34q3.94-2.49,11-2.5a22.26,22.26,0,0,1,6.24.77,18.65,18.65,0,0,1,4.71,2.11,20.35,20.35,0,0,1,3.84,3.17q1.73,1.83,3.65,3.94V79.49h19.6V188.81a33,33,0,0,1-1.63,10.09,25.72,25.72,0,0,1-5.28,9.22,27.75,27.75,0,0,1-9.22,6.72,31.19,31.19,0,0,1-13.26,2.59,32,32,0,0,1-9.22-1.44,25.85,25.85,0,0,1-8.93-4.8,28.82,28.82,0,0,1-7.11-8.93,39.06,39.06,0,0,1-3.94-14Zm0-41.3a15.72,15.72,0,0,0,2,8.07q2,3.46,7.59,3.46a9.19,9.19,0,0,0,7-3,10.67,10.67,0,0,0,2.79-7.59V110a13.58,13.58,0,0,0-2.69-8.74,8.67,8.67,0,0,0-7.11-3.36q-5,0-7.3,3.65a17.78,17.78,0,0,0-2.31,9.61Z" transform="translate(2 -5)"/><path class="cls-7" d="M663.84,40.11h19.6v19.6h-19.6Zm0,39.38h19.6v97.4h-19.6Z" transform="translate(2 -5)"/><path class="cls-7" d="M699.57,79.49h19.6v9.41h.38a27.85,27.85,0,0,1,7.4-7.59q4.32-3,11-3a22.47,22.47,0,0,1,7.3,1.25,16.93,16.93,0,0,1,6.53,4.13,20.83,20.83,0,0,1,4.61,7.4,31,31,0,0,1,1.73,11V176.9h-19.6V109.46q0-5.38-2.5-8.45A8.64,8.64,0,0,0,729,97.94q-5.57,0-7.68,3.46t-2.11,10V176.9h-19.6Z" transform="translate(2 -5)"/><path class="cls-7" d="M792.17,135.59v13.26q0,4.61,2.59,7.11a9.68,9.68,0,0,0,7,2.5q5.57,0,7.4-3.27a17.62,17.62,0,0,0,2.21-6.53H831a32.55,32.55,0,0,1-2,11.53,25.53,25.53,0,0,1-5.86,9.22,27.59,27.59,0,0,1-9.22,6.34,30.45,30.45,0,0,1-12.1,2.31,30.13,30.13,0,0,1-15.56-3.84,25.83,25.83,0,0,1-12.87-19,72,72,0,0,1-.77-11V112.15a72.11,72.11,0,0,1,.77-11,25.83,25.83,0,0,1,12.87-19,30.16,30.16,0,0,1,15.56-3.84A31.14,31.14,0,0,1,814,80.65a25.74,25.74,0,0,1,9.22,6.44,28.94,28.94,0,0,1,5.76,9.7,34.73,34.73,0,0,1,2,11.91v26.9Zm0-15.37h19.21V109.08q0-5.57-2.59-8.36a10.22,10.22,0,0,0-14,0q-2.59,2.79-2.59,8.36Z" transform="translate(2 -5)"/><path class="cls-7" d="M863.25,135.59v13.26q0,4.61,2.59,7.11a9.68,9.68,0,0,0,7,2.5q5.57,0,7.4-3.27a17.62,17.62,0,0,0,2.21-6.53h19.6a32.55,32.55,0,0,1-2,11.53,25.53,25.53,0,0,1-5.86,9.22,27.59,27.59,0,0,1-9.22,6.34,30.45,30.45,0,0,1-12.1,2.31,30.13,30.13,0,0,1-15.56-3.84,25.83,25.83,0,0,1-12.87-19,72,72,0,0,1-.77-11V112.15a72.11,72.11,0,0,1,.77-11,25.83,25.83,0,0,1,12.87-19,30.16,30.16,0,0,1,15.56-3.84,31.14,31.14,0,0,1,12.2,2.31,25.74,25.74,0,0,1,9.22,6.44,28.94,28.94,0,0,1,5.76,9.7,34.73,34.73,0,0,1,2,11.91v26.9Zm0-15.37h19.21V109.08q0-5.57-2.59-8.36a10.22,10.22,0,0,0-14,0q-2.59,2.79-2.59,8.36Z" transform="translate(2 -5)"/><path class="cls-7" d="M916.47,79.49h19.6V89.87a59.52,59.52,0,0,1,11.72-8.45q5.76-3.07,14.22-3.07V99.09a15.9,15.9,0,0,0-6-1.15A23.39,23.39,0,0,0,949.42,99a18.16,18.16,0,0,0-6.53,3.55,19,19,0,0,0-4.9,6.53,23.14,23.14,0,0,0-1.92,10V176.9h-19.6Z" transform="translate(2 -5)"/><path class="cls-7" d="M969.88,40.11h19.6v19.6h-19.6Zm0,39.38h19.6v97.4h-19.6Z" transform="translate(2 -5)"/><path class="cls-7" d="M1005.61,79.49h19.6v9.41h.38a27.85,27.85,0,0,1,7.4-7.59q4.32-3,11-3a22.47,22.47,0,0,1,7.3,1.25,16.93,16.93,0,0,1,6.53,4.13,20.83,20.83,0,0,1,4.61,7.4,31,31,0,0,1,1.73,11V176.9h-19.6V109.46q0-5.38-2.5-8.45a8.64,8.64,0,0,0-7.11-3.07q-5.57,0-7.68,3.46t-2.11,10V176.9h-19.6Z" transform="translate(2 -5)"/><path class="cls-7" d="M1099.93,188.23a11,11,0,0,0,2.79,6.53q2.59,3.07,7.59,3.07,4.8,0,6.92-3a12.82,12.82,0,0,0,2.11-7.59V168.06H1119a23.72,23.72,0,0,1-7.78,7.4A20.66,20.66,0,0,1,1100.7,178q-12.1,0-17.1-9.22a26,26,0,0,1-2.5-8.07,85.15,85.15,0,0,1-.77-12.87V110.81a150,150,0,0,1,.58-15.56,19.35,19.35,0,0,1,2.5-8.07,21,21,0,0,1,6.44-6.34q3.94-2.49,11-2.5a22.26,22.26,0,0,1,6.24.77,18.65,18.65,0,0,1,4.71,2.11,20.35,20.35,0,0,1,3.84,3.17q1.73,1.83,3.65,3.94V79.49h19.6V188.81a33,33,0,0,1-1.63,10.09,25.72,25.72,0,0,1-5.28,9.22,27.75,27.75,0,0,1-9.22,6.72,31.19,31.19,0,0,1-13.26,2.59,32,32,0,0,1-9.22-1.44,25.85,25.85,0,0,1-8.93-4.8,28.82,28.82,0,0,1-7.11-8.93,39.07,39.07,0,0,1-3.94-14Zm0-41.3a15.72,15.72,0,0,0,2,8.07q2,3.46,7.59,3.46a9.19,9.19,0,0,0,7-3,10.67,10.67,0,0,0,2.79-7.59V110a13.58,13.58,0,0,0-2.69-8.74,8.67,8.67,0,0,0-7.11-3.36q-5,0-7.3,3.65a17.78,17.78,0,0,0-2.31,9.61Z" transform="translate(2 -5)"/><path class="cls-4" d="M445.22,268.76h20.06V405.53H445.22Z" transform="translate(2 -5)"/><path class="cls-4" d="M541.81,268.76h18.91l60,97.23h.36V268.76h20.06V405.53h-19l-59.9-97.23h-.36v97.23H541.81Z" transform="translate(2 -5)"/><path class="cls-4" d="M720.3,268.76h46.35q26.9.19,40.36,23.08A42,42,0,0,1,813.09,308q1,8.44,1,29.17,0,22-1.54,30.77a35.24,35.24,0,0,1-2.18,7.88,73.7,73.7,0,0,1-3.73,7,46.79,46.79,0,0,1-16.18,15.95q-10.27,6.75-25.17,6.75h-45ZM740.36,386h24q16.92,0,24.56-11.94a23.22,23.22,0,0,0,4.28-11.19q.82-6.68.82-25,0-17.86-.82-25.57a24,24,0,0,0-5.18-12.5q-8.37-11.94-23.65-11.56h-24Z" transform="translate(2 -5)"/><path class="cls-4" d="M888.38,268.76H973v19.5H908.44V327.4h55.12v18.37H908.44V386H973v19.5H888.38Z" transform="translate(2 -5)"/><path class="cls-4" d="M1078.12,354.62l-29.06,50.91h-22.61l40.51-70.07-38-66.7h22.71l26.43,47.43,26.43-47.43h22.61L1088,335.46l41.75,70.07h-22.71Z" transform="translate(2 -5)"/></svg>