<svg xmlns="http://www.w3.org/2000/svg" viewBox="0 0 340 160"><linearGradient id="a" gradientUnits="userSpaceOnUse" x1="152.812" y1="1376.094" x2="219.647" y2="1376.094" gradientTransform="translate(0 -1317.89)"><stop offset="0" stop-color="#fff"/><stop offset="1"/></linearGradient><path d="M185.7 29.5c17.4 21.2 14.2 52.5-7 69.9-4.4 3.6-9.2 6.3-14.2 8.1 12.8 1.5 26.2-2 37-10.9 21.2-17.4 24.4-48.6 7-69.9-13.8-16.7-36.4-22.2-55.7-15.1 12.5 1.4 24.3 7.4 32.9 17.9" fill="url(#a)"/><linearGradient id="b" gradientUnits="userSpaceOnUse" x1="120.353" y1="1388.92" x2="219.559" y2="1388.92" gradientTransform="translate(0 -1317.89)"><stop offset="0" stop-color="#fff"/><stop offset="1"/></linearGradient><path d="M190.4 83.7c-26.3 7.9-53.9-7-61.8-33.3-1.6-5.4-2.3-10.9-2-16.3-6.3 11.3-8.1 25-4.1 38.4 7.9 26.3 35.5 41.2 61.8 33.3 20.9-6.3 34.5-25 35.3-45.5-6.1 10.8-16.2 19.5-29.2 23.4" fill="url(#b)"/><linearGradient id="c" gradientUnits="userSpaceOnUse" x1="120.49" y1="1374.671" x2="206.178" y2="1374.671" gradientTransform="translate(0 -1317.89)"><stop offset="0" stop-color="#fff"/><stop offset="1"/></linearGradient><path d="M139.7 70c.4-27.5 22.9-49.3 50.4-48.9 5.7.1 11.1 1.1 16.1 2.9-8.9-9.3-21.4-15.3-35.4-15.4-27.4-.5-49.9 21.5-50.3 48.9-.3 21.8 13.5 40.5 32.9 47.4-8.6-9-14-21.3-13.7-34.9" fill="url(#c)"/><g opacity=".88"><path d="M139.7 70c.4-27.5 22.9-49.3 50.4-48.9 5.7.1 11.1 1.1 16.1 2.9-8.9-9.3-21.4-15.3-35.4-15.4-27.4-.5-49.9 21.5-50.3 48.9-.3 21.8 13.5 40.5 32.9 47.4-8.6-9-14-21.3-13.7-34.9" opacity=".7" fill="#d12149"/><path d="M190.4 83.7c-26.3 7.9-53.9-7-61.8-33.3-1.6-5.4-2.3-10.9-2-16.3-6.3 11.3-8.1 25-4.1 38.4 7.9 26.3 35.5 41.2 61.8 33.3 20.9-6.3 34.5-25 35.3-45.5-6.1 10.8-16.2 19.5-29.2 23.4" opacity=".7" fill="#00b49c"/><path d="M185.7 29.5c17.4 21.2 14.2 52.5-7 69.9-4.4 3.6-9.2 6.3-14.2 8.1 12.8 1.5 26.2-2 37-10.9 21.2-17.4 24.4-48.6 7-69.9-13.8-16.7-36.4-22.2-55.7-15.1 12.5 1.4 24.3 7.4 32.9 17.9" opacity=".7" fill="#ffd400"/><path d="M139.7 70c.4-27.5 22.9-49.3 50.4-48.9 5.7.1 11.1 1.1 16.1 2.9-8.9-9.3-21.4-15.3-35.4-15.4-27.4-.5-49.9 21.5-50.3 48.9-.3 21.8 13.5 40.5 32.9 47.4-8.6-9-14-21.3-13.7-34.9" fill="#d12149"/><path d="M190.4 83.7c-26.3 7.9-53.9-7-61.8-33.3-1.6-5.4-2.3-10.9-2-16.3-6.3 11.3-8.1 25-4.1 38.4 7.9 26.3 35.5 41.2 61.8 33.3 20.9-6.3 34.5-25 35.3-45.5-6.1 10.8-16.2 19.5-29.2 23.4" fill="#00b49c"/><path d="M185.7 29.5c17.4 21.2 14.2 52.5-7 69.9-4.4 3.6-9.2 6.3-14.2 8.1 12.8 1.5 26.2-2 37-10.9 21.2-17.4 24.4-48.6 7-69.9-13.8-16.7-36.4-22.2-55.7-15.1 12.5 1.4 24.3 7.4 32.9 17.9" fill="#ffd400"/></g><path d="M90.6 149.7c0 .4-.2.6-.6.8-1 .2-2.5.4-4.4.6-1.9.2-3.6.3-5.2.3-1.7 0-3.1-.2-4.4-.7s-2.2-1.2-3-2.2c-.8-.9-1.4-2.1-1.7-3.5-.4-1.4-.5-2.9-.5-4.7v-19.5c0-.2.1-.4.2-.5.1-.2.3-.2.5-.2h.4c.2 0 .4.1.5.2s.2.3.2.5v19.5c0 1.6.1 2.9.4 4.1.3 1.2.7 2.1 1.3 2.9.5.8 1.4 1.4 2.4 1.8 1 .4 2.2.6 3.7.6s2.9-.1 4.6-.2c1.7-.1 2.9-.3 3.8-.4v-28.2c0-.2.1-.4.2-.5.1-.2.3-.2.5-.2h.4c.2 0 .4.1.5.2.1.2.2.3.2.5v28.8zm27.2-.4c0 .6-.2 1.2-.5 1.6-.3.4-.8.5-1.4.5-.4 0-.6 0-.9-.1-.2-.1-.4-.1-.5-.2-.3-.2-.5-.5-.8-.9l-14-28.2c-.1-.2-.2-.3-.3-.3-.1 0-.2.1-.2.3v28.5c0 .2-.1.4-.2.5-.1.2-.3.2-.5.2h-.4c-.2 0-.4-.1-.5-.2-.1-.2-.2-.3-.2-.5V122c0-.6.2-1.2.5-1.5.4-.3.9-.5 1.5-.5s1 .1 1.3.3c.3.2.5.5.7 1l14.1 28.2c.1.2.2.3.3.3.1 0 .2-.1.2-.4V121c0-.2.1-.4.2-.5.1-.2.3-.2.5-.2h.5c.2 0 .4.1.5.2.1.2.2.3.2.5l-.1 28.3zm9 1c0 .2-.1.4-.2.5-.1.2-.3.2-.5.2h-.4c-.2 0-.4-.1-.5-.2-.1-.2-.2-.3-.2-.5v-29.5c0-.2.1-.4.2-.5.1-.2.3-.2.5-.2h.4c.2 0 .4.1.5.2.1.2.2.3.2.5v29.5zm24.9-21.2c0 3.1-.9 5.4-2.9 6.8-1.9 1.4-4.8 2.1-8.5 2.1-1.5 0-3-.1-4.5-.2v12.5c0 .2-.1.4-.2.5-.1.2-.3.2-.5.2h-.4c-.2 0-.4-.1-.5-.2-.1-.2-.2-.3-.2-.5v-29.6c0-.2.1-.3.2-.5.2-.2.3-.3.5-.3 1.5-.1 2.5-.1 3.2-.2.6-.1 1.5-.1 2.4-.1 7.6 0 11.4 2.8 11.4 8.5v1zm-1.8 0v-.7c0-2.5-.8-4.3-2.3-5.3-1.6-1-4-1.6-7.2-1.6-1.8 0-3.3.1-4.5.1v14.6c1.7.1 3.2.2 4.5.2 1.7 0 3.1-.1 4.3-.4 1.2-.3 2.2-.6 2.9-1.3.8-.6 1.4-1.4 1.8-2.2.2-.9.5-2 .5-3.4zm27.2 9.1c0 3-.4 5.5-1.4 7.5-.9 1.9-2.2 3.4-3.8 4.3-1.6.9-3.5 1.4-5.6 1.4-2.1 0-4-.4-5.6-1.4-1.6-.9-2.9-2.4-3.8-4.3-.9-1.9-1.4-4.4-1.4-7.5v-5.1c0-2.2.3-4.2.8-5.9.5-1.7 1.3-3 2.2-4.2.9-1 2.1-1.9 3.4-2.4 1.3-.5 2.7-.8 4.3-.8 1.6 0 3 .3 4.3.8 1.3.5 2.4 1.3 3.4 2.4 1 1.1 1.7 2.4 2.2 4.2.5 1.7.8 3.7.8 5.9v5.1zm-1.9 0v-5.1c0-2.7-.4-4.9-1.1-6.6-.7-1.7-1.8-2.9-3.1-3.7-1.4-.7-2.9-1.1-4.7-1.1-5.9 0-8.9 3.8-8.9 11.4v5.1c0 7.6 2.9 11.4 8.9 11.4 1.8 0 3.3-.4 4.7-1.1 1.4-.7 2.3-1.9 3.1-3.7.7-1.7 1.1-3.9 1.1-6.6zm27.5 12.3c0 .4-.2.6-.6.6h-.5c-.2 0-.4-.1-.6-.4l-8.9-13.6h-1.7c-1.1 0-2.1 0-3-.1-.9-.1-1.7 0-2.3 0v13.3c0 .2-.1.4-.2.5-.1.2-.3.2-.5.2h-.4c-.2 0-.4-.1-.5-.2-.1-.2-.2-.3-.2-.5v-29.5c0-.2.1-.3.2-.5.2-.2.3-.3.5-.3.5 0 1.6-.1 3.2-.1 1.6-.1 2.7-.1 3.3-.1 2 0 3.7.2 5 .4 1.4.3 2.5.8 3.5 1.5.9.6 1.7 1.6 2.1 2.6.4 1.1.7 2.4.7 4.1v.2c0 1.3-.2 2.4-.5 3.3-.3.9-.8 1.8-1.4 2.4-.6.6-1.4 1.2-2.3 1.6-.9.4-2.1.7-3.2.9l8.4 13c-.2.4-.1.6-.1.7zm-3-21.9v-.2c0-2.5-.8-4.3-2.3-5.3-1.6-1-4-1.5-7.2-1.5-2.5 0-4.3.1-5.4.2v13.5h2.8c.8 0 1.7 0 2.5.1 2.2 0 4.1-.2 5.4-.6 1.4-.4 2.4-1.1 3.1-2.1.8-1 1.1-2.4 1.1-4.1zm25.5-7.5c0 .4-.3.6-.8.6h-9v28.6c0 .2-.1.4-.2.5-.1.2-.3.2-.5.2h-.4c-.2 0-.3-.1-.5-.2-.1-.2-.2-.3-.2-.5v-28.5h-9c-.5 0-.8-.2-.8-.6v-.4c0-.2.1-.4.2-.5.2-.1.3-.2.5-.2h19.8c.2 0 .4.1.5.2.2.1.2.3.2.5l.2.3zm21.9 29.2c0 .2-.1.4-.2.5-.1.2-.3.2-.5.2h-.4c-.2 0-.3-.1-.5-.2-.1-.2-.2-.3-.2-.5v-13.7h-15.4v13.7c0 .2-.1.4-.2.5-.1.2-.3.2-.5.2h-.4c-.2 0-.4-.1-.5-.2-.1-.2-.2-.3-.2-.5v-22.2c0-1.9.2-3.4.7-4.6.5-1.2 1.4-2.1 2.5-2.6 1.2-.5 2.8-.9 4.8-.9h2.9c2.1 0 3.7.3 4.8.9 1.2.5 2 1.5 2.5 2.6.5 1.2.7 2.7.7 4.6l.1 22.2zm-1.9-15.5v-6.7c0-1.7-.2-2.9-.5-3.8-.4-.9-1-1.6-1.9-1.9-.9-.4-2.2-.6-3.8-.6h-2.9c-1.6 0-2.9.2-3.8.6-.9.4-1.5 1-1.9 1.9-.4.9-.5 2.2-.5 3.8v6.7h15.3zm24 15.7c0 .5-.3.7-.8.7h-9.5c-1.1 0-2.1-.2-2.8-.4-.7-.3-1.3-.8-1.7-1.5-.4-.6-.5-1.6-.5-2.8v-25.6c0-.2.1-.4.2-.5.1-.2.3-.2.5-.2h.4c.2 0 .4.1.5.2.1.2.2.3.2.5v25.6c0 1.2.3 2 .8 2.4.5.4 1.4.5 2.4.5h9.5c.5 0 .8.2.8.6v.5z" fill="#fff"/></svg>